<svg xmlns="http://www.w3.org/2000/svg" width="40" height="45" viewBox="0 0 40 45">
    <path fill="#00263E" fill-rule="nonzero" d="M20 0c-1.232 0-2.29.63-3.063 1.193l-.015.016-2.766 1.877-3.782.477a.988.988 0 0 0-.093.032c-2.073.472-3.805 2.197-4.266 4.327a1.035 1.035 0 0 0-.016.095l-.469 3.818-1.875 2.863.031.016c-1.527 1.696-1.507 4.29-.015 6.204l-.016.016.063.08 1.86 2.862.921 3.723c.005.048.025.095.031.143.014.105.027.213.047.318l-6.39 9.02a1.033 1.033 0 0 0-.058 1.091c.191.344.56.545.948.515l6.203-.446 1.766 5.838a.992.992 0 1 0 1.766.302l6.625-9.146c.514.227 1.02.28 1.47.334.594.071 1.093.064 1.093.064s.499.007 1.094-.064c.45-.054.955-.107 1.469-.334l6.625 9.147a.992.992 0 0 0 1.766-.303l1.766-5.838 6.203.446c.388.03.757-.17.948-.515.19-.344.169-.77-.057-1.092l-6.391-9.019c.02-.105.033-.213.047-.318.006-.048.026-.095.031-.143l.922-3.723 1.86-2.863.062-.08-.016-.015c1.492-1.914 1.512-4.508-.015-6.204l.03-.016-1.874-2.863L34 8.017a1.035 1.035 0 0 0-.016-.095c-.461-2.13-2.193-3.855-4.266-4.327a.988.988 0 0 0-.093-.032l-3.782-.477-2.766-1.877-.015-.016C22.29.629 21.232 0 20 0zm0 2.036c.309 0 1.42.46 1.922.827l.031.016 3 2.036c.126.09.27.15.422.175l3.97.51h.03c1.176.315 2.39 1.552 2.657 2.751v.016l.485 3.977c.017.159.07.311.156.445l2 3.054c.037.052.079.1.125.144.951.964 1.002 2.41-.063 3.722a1.015 1.015 0 0 0-.062.08l-2 3.053a1.027 1.027 0 0 0-.14.319l-1 4.072a1.036 1.036 0 0 0-.017.143c-.138 1.28-1.096 2.54-2.125 2.656h-.015l-4 .51a.992.992 0 0 0-.516.238l-2.938 2.482c-.098.055-.607.215-1.063.27-.468.056-.859.064-.859.064s-.391-.008-.86-.064c-.455-.055-.964-.215-1.062-.27L15.14 30.78a.992.992 0 0 0-.515-.239l-4-.509h-.016c-1.03-.117-1.987-1.375-2.125-2.656a1.036 1.036 0 0 0-.016-.143l-1-4.072a1.027 1.027 0 0 0-.14-.319l-2-3.054a1.015 1.015 0 0 0-.063-.08c-1.065-1.311-1.014-2.757-.063-3.721.046-.044.088-.092.125-.144l2-3.054a1.03 1.03 0 0 0 .156-.445l.485-3.977v-.016c.267-1.2 1.481-2.436 2.656-2.752.01-.002.023.003.032 0l3.969-.509a.99.99 0 0 0 .422-.175l3-2.036.031-.016c.502-.368 1.613-.827 1.922-.827zm0 6.617c-4.96 0-9 4.115-9 9.163s4.04 9.162 9 9.162 9-4.114 9-9.162c0-5.048-4.04-9.163-9-9.163zm0 2.037c3.878 0 7 3.178 7 7.126 0 3.948-3.122 7.126-7 7.126s-7-3.178-7-7.126c0-3.948 3.122-7.126 7-7.126zm0 2.036c-2.762 0-5 2.279-5 5.09s2.238 5.09 5 5.09 5-2.279 5-5.09-2.238-5.09-5-5.09zM7.5 30.256c.221.317.476.607.765.858l-2.766 4.009h4l1.5 3.563 3.97-5.393.859.716-5.454 7.524-1.422-4.676a1 1 0 0 0-1.031-.716l-4.86.35L7.5 30.255zm25 0l4.439 6.235-4.86-.35a1 1 0 0 0-1.031.716l-1.422 4.676-5.454-7.524.86-.716L29 38.686l1.5-3.563h4l-2.766-4.009c.29-.251.544-.541.766-.859z"/>
</svg>
