<svg xmlns="http://www.w3.org/2000/svg" width="40" height="39" viewBox="0 0 40 39">
    <path fill="#00263E" fill-rule="nonzero" d="M37.136 23.609C37.552 22.113 40 20.822 40 19.2c0-1.622-2.448-2.913-2.864-4.409-.43-1.547 1.004-3.838.187-5.193-.828-1.374-3.62-1.322-4.782-2.438-1.161-1.115-1.107-3.795-2.539-4.59-1.411-.784-3.798.593-5.41.18C23.035 2.35 21.69 0 20 0c-1.69 0-3.035 2.35-4.592 2.75-1.612.413-3.999-.964-5.41-.18-1.432.795-1.377 3.475-2.54 4.59-1.161 1.116-3.953 1.063-4.781 2.438-.817 1.355.618 3.646.187 5.193C2.448 16.287 0 17.578 0 19.2c0 1.622 2.448 2.913 2.864 4.409.43 1.547-1.004 3.838-.187 5.193.828 1.374 3.62 1.322 4.782 2.438 1.161 1.115 1.107 3.795 2.539 4.59 1.411.784 3.798-.593 5.41-.18 1.557.4 2.903 2.75 4.592 2.75 1.69 0 3.035-2.35 4.592-2.75 1.612-.413 3.999.964 5.41.18 1.432-.795 1.377-3.475 2.54-4.59 1.161-1.116 3.953-1.063 4.781-2.438.817-1.355-.618-3.646-.187-5.193zm-19.72 2.124l-5.68-5.486 2.759-2.664 3 2.898 8.09-7.814 2.678 2.586-10.848 10.48z"/>
</svg>
