<svg xmlns="http://www.w3.org/2000/svg" width="50" height="46" viewBox="0 0 50 46">
    <path fill="#00263E" fill-rule="nonzero" d="M3.285 24.596C1.181 21.96 0 18.809 0 15.553 0 6.976 7.803 0 17.402 0c7.803 0 14.374 4.599 16.582 10.903-.565-.052-1.13-.052-1.746-.052-.513 0-1.027 0-1.54.052-2.105-4.599-7.29-7.854-13.347-7.854-7.905 0-14.374 5.58-14.374 12.504 0 2.842 1.078 5.53 3.132 7.803l.616.671-.308.879c-.257.723-.616 1.447-1.078 2.015.975-.155 1.848-.465 2.618-.93l.77-.465.77.413c.719.414 1.437.724 2.207 1.034-.102.827-.205 1.653-.205 2.532v.62c-.975-.31-1.9-.672-2.772-1.137-1.386.672-2.926.982-4.569.982-.565 0-1.13-.052-1.694-.104-.821-.103-1.437-.723-1.643-1.498-.205-.827.154-1.602.822-2.067.718-.413 1.232-.982 1.642-1.705zM50 29.505c0 3.72-1.489 7.13-3.953 9.817.462 1.24 1.284 2.636 2.824 3.67.359.257.256.826-.206.877-1.591.207-4.26.259-6.776-1.24-2.772 1.602-6.109 2.532-9.65 2.532-9.806 0-17.763-7.027-17.763-15.656 0-8.63 7.957-15.657 17.762-15.657S50 20.875 50 29.505zm-16.53 5.167a.704.704 0 0 0-.718-.724h-1.797c-.41 0-.719.31-.719.724v1.188c0 .414.308.724.719.724h1.797c.41 0 .718-.31.718-.724v-1.188zm3.542-7.958c0-1.291-.41-2.325-1.283-3.1-.873-.775-2.053-1.137-3.542-1.137-1.386 0-2.516.31-3.388.982-.77.568-1.18 1.447-1.232 2.532 0 .258.205.465.462.465l2.053.052a.772.772 0 0 0 .719-.517c.051-.258.205-.465.36-.62.307-.258.615-.413 1.077-.413.514 0 .924.155 1.232.465.308.31.41.723.41 1.291 0 .517-.102.982-.358 1.344-.257.362-.565.723-.976.982-.821.568-1.386 1.085-1.694 1.55-.257.362-.41.827-.462 1.447-.051.31.205.516.513.516h2.208c.257 0 .462-.206.513-.465.052-.31.103-.568.206-.826.154-.31.41-.62.82-.879.72-.362 1.336-.93 1.798-1.55.308-.568.564-1.344.564-2.119z"/>
</svg>
