<svg xmlns="http://www.w3.org/2000/svg" width="40" height="45" viewBox="0 0 40 45">
    <g fill="#00263E" fill-rule="evenodd">
        <path d="M40 33.867V12l-17.773 9.716L20 22.933V44.8zM19.633 0L.8 10.843 8.367 15.2 27.2 4.357zM29.718 6.4L10.4 16.887l1.457.79 7.226 3.923 7.187-3.902 12.13-6.585zM10.84 24.107l-.198-.425-.198.249-.149-.411-.262.217-.125-.412-.271.176-.154-.425-.236.218-.155-.466-.223.284-.11-.448-.25.297-.154-.444-.178.268-.096-.364v-6.004L.001 12 0 33.867 20 44.8V22.933l-9.013-4.927v5.84z"/>
    </g>
</svg>
