<?xml version="1.0" encoding="utf-8"?>
<!-- Generator: Adobe Illustrator 24.0.2, SVG Export Plug-In . SVG Version: 6.00 Build 0)  -->
<svg version="1.1" id="Layer_1" xmlns="http://www.w3.org/2000/svg" xmlns:xlink="http://www.w3.org/1999/xlink" x="0px" y="0px"
	 viewBox="0 0 37.8 41.5" style="enable-background:new 0 0 37.8 41.5;" xml:space="preserve">
<style type="text/css">
	.st0{fill:#00263E;}
</style>
<path class="st0" d="M35.6,5l-16-4.4c-0.4-0.1-0.9-0.1-1.3,0L2.2,5C1.1,5.3,0.4,6.3,0.5,7.4c0.7,23.4,13.7,31,17.5,32.7
	c0.6,0.3,1.3,0.3,2,0c3.7-1.7,16.8-9.3,17.5-32.7C37.4,6.3,36.7,5.3,35.6,5z M14,11.6c0-2.7,2.2-4.9,4.9-4.9c2.7,0,4.9,2.2,4.9,4.9
	v2.7h-2.2v-2.7c0-1.5-1.2-2.7-2.7-2.7c-1.5,0-2.7,1.2-2.7,2.7v2.7H14V11.6z M27.2,26c0,1.4-1.1,2.5-2.5,2.5H13
	c-1.4,0-2.5-1.1-2.5-2.5v-6.8c0-1.4,1.1-2.5,2.5-2.5h11.8c1.4,0,2.5,1.1,2.5,2.5V26z"/>
</svg>
